**ABCDEFGHIJKLMNOPQRSTUVWXYZabcdefghijklmnopqrstuvwxyz**************************
**PARASOLID !"#$%&'()*+,-./:;<=>?@[\]^_`{|}~0123456789**************************
**PART1;
MC=AMD64;
MC_MODEL=Intel64 Family 6 Model 158 Stepping 9, GenuineIntel;
MC_ID=unknown;
OS=Windows_NT;
OS_RELEASE=unknown;
FRU=Parasolid Version 29.0, build 166,  7-11-2016;
APPL=SOLIDWORKS 2017-2016280;
SITE=;
USER=unknown;
FORMAT=text;
GUISE=transmit;
KEY=»¬»·;
FILE=»¬»·.x_t;
DATE=Tue Apr 21 15:08:54 2020;
**PART2;
SCH=SCH_2900166_28101;
USFLD_SIZE=0;
**PART3;
**END_OF_HEADER*****************************************************************
T51 : TRANSMIT FILE created by modeller version 290016623 SCH_2900166_28101_1300
6203 0 12 33 CCCCCCI4 mesh1006 0 I8 polyline1008 0 CCCCCCCDI5 owner1040 0 CCCCCC
I13 boundary_mesh1006 0 I17 boundary_polyline1008 0 CCCA16 index_map_offset0 0 1
 dA9 index_map82 0 A17 node_id_index_map82 0 A20 schema_embedding_map82 0 A5 chi
ld12 0 A14 lowest_node_id0 0 1 dZ1 432 2 3 0 0 0 0 0 0 1e3 1e-8 0 4 0 1 0 1 1 5
 6 7 0 0 0 8 9 0 0 0 0 0 0 0 81 255 2 2 94 10 1 0 0 0 0 11 0 70 11 CI9 list_type
0 0 1 uI10 notransmit0 0 1 lCCCDCCDI12 finger_index0 0 1 dI12 finger_block1012 0
 CZ3 0 4 T1 0 0 3 20 1 12 12 13 255 5 29 0 1 0 13 0 0 14 0 51 255 6 28 0 15 16 0
 0 -0 .034 0 0 -1 0 .03 0 0 -1 31 255 7 71 0 17 18 0 0 +0 0 0 0 1 0 0 0 1 .0125
 19 8 CCCCCCCA5 owner12 0 Z8 7 0 1 14 0 19 V0 16 255 9 52 0 ?20 0 17 18 0 0 1 17
 255 20 0 21 20 20 0 22 9 0 0 +16 17 49 0 ?23 9 24 7 0 0 1 31 18 72 0 9 25 7 0 +
0 .034 0 0 1 0 0 0 1 .0125 31 25 159 0 24 26 18 0 +0 .028 0 0 1 0 0 0 1 .03 16 2
4 122 0 ?27 17 28 25 0 0 1 31 26 160 0 29 30 25 0 +0 .034 0 0 1 0 0 0 1 .028 16
 29 131 0 ?31 28 32 26 0 0 1 31 30 161 0 28 33 26 0 +0 .028 0 0 1 0 0 0 1 .028 1
6 28 125 0 ?34 24 29 30 0 0 1 31 33 278 0 35 36 30 0 +0 .006 0 0 1 0 0 0 1 .03 1
6 35 242 0 ?37 38 39 33 0 0 1 31 36 280 0 40 41 33 0 +0 .006 0 0 1 0 0 0 1 .028
 16 40 245 0 ?42 39 0 36 0 0 1 31 41 281 0 39 43 36 0 +0 1734723475976805e-33 0
 0 1 0 0 0 1 .028 16 39 239 0 ?44 35 40 41 0 0 1 31 43 282 0 45 46 41 0 +0 .02 0
 0 1 0 0 0 1 .03 16 45 211 0 ?47 32 48 43 0 0 1 31 46 283 0 32 49 43 0 +0 .014 0
 0 1 0 0 0 1 .03 16 32 205 0 ?50 29 45 46 0 0 1 31 49 284 0 38 51 46 0 +0 .02 0
 0 1 0 0 0 1 .028 16 38 214 0 ?52 48 35 49 0 0 1 31 51 285 0 48 0 49 0 +0 .014 0
 0 1 0 0 0 1 .028 16 48 208 0 ?53 45 38 51 0 0 1 17 53 0 54 53 53 0 55 48 0 0 +1
5 255 54 233 0 53 56 57 17 55 0 58 55 55 0 53 48 0 0 -15 58 224 0 55 59 60 14 25
5 59 222 61 ?62 63 58 5 64 +0 0 62 63 19 15 60 225 0 50 59 0 17 50 0 60 50 50 0
 65 32 0 0 +17 65 0 66 65 65 0 50 32 0 0 -15 66 199 0 65 63 0 14 63 201 67 ?59 6
8 69 5 6 -15 15 59 68 19 81 1 67 422 70 63 71 0 61 72 73 14 68 261 72 ?63 74 75
 5 76 +0 0 63 74 19 15 69 184 0 37 63 66 14 15 111 77 ?78 79 80 5 6 -63 63 78 79
 19 13 19 8 0 0 0 0 0 0 8 13 14 13 180 81 ?79 0 82 5 16 -0 0 79 0 19 81 1 81 425
 70 13 83 0 77 84 85 14 79 118 84 ?15 13 86 5 87 +0 0 15 13 19 15 82 38 0 23 13
 88 50 255 16 22 0 13 87 6 0 +0 0 0 0 1 0 0 0 1 50 87 2 0 79 89 16 0 +0 .034 0 0
 1 0 0 0 1 51 89 68 0 78 90 87 0 -0 .034 0 0 -1 0 .0125 0 0 -1 14 78 55 91 ?92 1
5 21 5 89 +0 0 92 15 19 50 90 156 0 92 93 89 0 +0 .028 0 0 1 0 0 0 1 14 92 139 9
4 ?95 78 96 5 90 +0 0 95 78 19 51 93 157 0 95 97 90 0 +0 .028 0 0 1 0 .028 0 0 1
 14 95 147 98 ?74 92 99 5 93 +0 0 74 92 19 50 97 271 0 74 76 93 0 +0 .006 0 0 1
 0 0 0 1 14 74 257 100 ?68 95 101 5 97 -0 0 68 95 19 51 76 273 0 68 102 97 0 +0
 1734723475976805e-33 0 0 1 0 .028 0 0 1 50 102 275 0 62 64 76 0 +0 .02 0 0 1 0
 0 0 1 14 62 226 103 ?56 59 104 5 102 -0 0 56 59 19 50 64 276 0 59 105 102 0 +0
 .014 0 0 1 0 0 0 1 51 105 277 0 56 0 64 0 +0 .014 0 0 1 0 .028 0 0 1 14 56 230
 106 ?0 62 54 5 105 +0 0 0 62 19 81 1 106 432 70 56 107 0 103 0 108 80 255 1 70
 109 110 9000 1 1 1 1 1 1 1 1 0 FFFFTFTFFFFFFF1 81 1 107 394 111 56 0 106 112 0
 113 81 1 103 431 70 62 112 0 100 106 114 82 255 1 108 -553910126 81 1 112 393 1
11 62 0 103 115 107 116 81 1 100 430 70 74 117 0 98 103 118 82 1 114 -558169966
 81 1 117 389 111 74 0 100 119 120 121 81 1 98 429 70 95 119 0 94 100 122 82 1 1
18 -542769006 81 1 119 388 111 95 0 98 123 117 124 81 1 94 428 70 92 123 0 91 98
 125 82 1 122 -1259143024 81 1 123 387 111 92 0 94 126 119 127 81 1 91 427 70 78
 126 0 84 94 128 82 1 125 -1265106800 81 1 126 386 111 78 0 91 129 123 130 81 1
 84 426 70 79 131 0 81 91 132 82 1 128 -1968045939 81 1 131 384 111 79 0 84 83 1
29 133 82 1 132 -1255145328 80 1 111 0 134 8001 0 0 0 0 3 5 0 0 0 FFFFTFTFFFFFFF
2 81 1 83 383 111 13 0 81 0 131 135 81 1 129 385 111 15 0 77 131 126 136 83 255
 3 133 .247058823529412 .572549019607843 1 81 1 77 424 70 15 129 0 72 81 137 83
 3 136 .988235294117647 .607843137254902 0 81 1 72 423 70 68 120 0 67 77 138 82
 1 137 -1255735150 81 1 120 390 111 68 0 72 117 71 139 82 1 138 -538509166 81 1
 71 391 111 63 0 67 120 115 140 83 3 139 .247058823529412 .572549019607843 1 81
 1 115 392 111 59 0 61 71 112 141 83 3 140 .988235294117647 .607843137254902 0 8
1 1 61 421 70 59 115 0 0 67 142 83 3 141 .988235294117647 .607843137254902 0 82
 1 142 -559873902 83 3 135 1 1 1 79 255 15 134 SDL/TYSA_COLOUR83 3 130 1 1 1 83
 3 127 .988235294117647 .607843137254902 0 83 3 124 .247058823529412 .5725490196
07843 1 83 3 121 .988235294117647 .607843137254902 0 83 3 116 .988235294117647 .
607843137254902 0 83 3 113 .247058823529412 .572549019607843 1 79 14 110 SWEntUn
changed15 104 228 0 52 62 143 17 52 0 104 52 52 0 144 38 0 0 +15 143 229 0 145 6
2 0 17 145 0 143 145 145 0 47 45 0 0 -17 47 0 80 47 47 0 145 45 0 0 +15 80 191 0
 47 15 146 15 146 109 0 147 15 0 17 147 0 146 147 147 0 27 24 0 0 -17 27 0 148 2
7 27 0 147 24 0 0 +15 148 142 0 27 92 0 17 144 0 57 144 144 0 52 38 0 0 -15 57 2
34 0 144 56 0 15 101 259 0 42 74 149 17 42 0 101 42 42 0 150 40 0 0 +15 149 260
 0 151 74 0 17 151 0 149 151 151 0 37 35 0 0 -17 37 0 69 37 37 0 151 35 0 0 +17
 150 0 152 150 150 0 42 40 0 0 -15 152 265 0 150 68 0 15 99 150 0 34 95 153 17 3
4 0 99 34 34 0 154 28 0 0 +15 153 151 0 155 95 0 17 155 0 153 155 155 0 31 29 0
 0 -17 31 0 156 31 31 0 155 29 0 0 +15 156 115 0 31 79 0 17 154 0 96 154 154 0 3
4 28 0 0 -15 96 141 0 154 92 148 15 21 58 0 20 78 157 15 157 59 0 158 78 0 17 15
8 0 157 158 158 0 23 17 0 0 -17 23 0 82 23 23 0 158 17 0 0 +15 88 178 0 159 13 0
 17 159 0 88 159 159 0 44 39 0 0 -17 44 0 75 44 44 0 159 39 0 0 +15 75 264 0 44
 68 152 15 86 43 0 22 79 156 17 22 0 86 22 22 0 20 9 0 0 -82 1 85 -534904686 82
 1 73 -533135214 19 14 30 0 1 0 8 5 S0 74 4 CI16 index_map_offset0 0 1 dCCZ20 12
 3 0 0 106 2 107 0 0 0 0 0 0 0 0 0 0 0 0 0 0 0 0 0 80 2 10 160 161 8004 0 0 0 0
 3 5 0 0 0 FFTFFFFFFFFFFT2 3 83 1 11 1e3 79 16 161 SDL/TYSA_DENSITY1 0 
